<?xml version="1.0" encoding="UTF-8"?>
<svg width="700pt" height="700pt" version="1.1" viewBox="0 0 700 700" xmlns="http://www.w3.org/2000/svg" xmlns:xlink="http://www.w3.org/1999/xlink">
 <defs>
  <symbol id="w" overflow="visible">
   <path d="m18.766-1.125c-0.96875 0.5-1.9805 0.875-3.0312 1.125-1.043 0.25781-2.1367 0.39062-3.2812 0.39062-3.3984 0-6.0898-0.94531-8.0781-2.8438-1.9922-1.9062-2.9844-4.4844-2.9844-7.7344 0-3.2578 0.99219-5.8359 2.9844-7.7344 1.9883-1.9062 4.6797-2.8594 8.0781-2.8594 1.1445 0 2.2383 0.13281 3.2812 0.39062 1.0508 0.25 2.0625 0.625 3.0312 1.125v4.2188c-0.98047-0.65625-1.9453-1.1406-2.8906-1.4531-0.94922-0.3125-1.9492-0.46875-3-0.46875-1.875 0-3.3516 0.60547-4.4219 1.8125-1.0742 1.1992-1.6094 2.8555-1.6094 4.9688 0 2.1055 0.53516 3.7617 1.6094 4.9688 1.0703 1.1992 2.5469 1.7969 4.4219 1.7969 1.0508 0 2.0508-0.14844 3-0.45312 0.94531-0.3125 1.9102-0.80078 2.8906-1.4688z"/>
  </symbol>
  <symbol id="b" overflow="visible">
   <path d="m13.734-11.141c-0.4375-0.19531-0.87109-0.34375-1.2969-0.4375-0.41797-0.10156-0.83984-0.15625-1.2656-0.15625-1.2617 0-2.2305 0.40625-2.9062 1.2188-0.67969 0.80469-1.0156 1.9531-1.0156 3.4531v7.0625h-4.8906v-15.312h4.8906v2.5156c0.625-1 1.3438-1.7266 2.1562-2.1875 0.82031-0.46875 1.8008-0.70312 2.9375-0.70312 0.16406 0 0.34375 0.011719 0.53125 0.03125 0.19531 0.011719 0.47656 0.039062 0.84375 0.078125z"/>
  </symbol>
  <symbol id="a" overflow="visible">
   <path d="m17.641-7.7031v1.4062h-11.453c0.125 1.1484 0.53906 2.0078 1.25 2.5781 0.70703 0.57422 1.7031 0.85938 2.9844 0.85938 1.0312 0 2.082-0.14844 3.1562-0.45312 1.082-0.3125 2.1914-0.77344 3.3281-1.3906v3.7656c-1.1562 0.4375-2.3125 0.76562-3.4688 0.98438-1.1562 0.22656-2.3125 0.34375-3.4688 0.34375-2.7734 0-4.9297-0.70312-6.4688-2.1094-1.5312-1.4062-2.2969-3.3789-2.2969-5.9219 0-2.5 0.75391-4.4609 2.2656-5.8906 1.5078-1.4375 3.582-2.1562 6.2188-2.1562 2.4062 0 4.332 0.73047 5.7812 2.1875 1.4453 1.4492 2.1719 3.3828 2.1719 5.7969zm-5.0312-1.625c0-0.92578-0.27344-1.6719-0.8125-2.2344-0.54297-0.57031-1.25-0.85938-2.125-0.85938-0.94922 0-1.7188 0.26562-2.3125 0.79688s-0.96484 1.2969-1.1094 2.2969z"/>
  </symbol>
  <symbol id="l" overflow="visible">
   <path d="m9.2188-6.8906c-1.0234 0-1.793 0.17188-2.3125 0.51562-0.51172 0.34375-0.76562 0.85547-0.76562 1.5312 0 0.625 0.20703 1.1172 0.625 1.4688 0.41406 0.34375 0.98828 0.51562 1.7188 0.51562 0.92578 0 1.7031-0.32812 2.3281-0.98438 0.63281-0.66406 0.95312-1.4922 0.95312-2.4844v-0.5625zm7.4688-1.8438v8.7344h-4.9219v-2.2656c-0.65625 0.92969-1.3984 1.6055-2.2188 2.0312-0.82422 0.41406-1.8242 0.625-3 0.625-1.5859 0-2.8711-0.45703-3.8594-1.375-0.99219-0.92578-1.4844-2.1289-1.4844-3.6094 0-1.7891 0.61328-3.1016 1.8438-3.9375 1.2383-0.84375 3.1797-1.2656 5.8281-1.2656h2.8906v-0.39062c0-0.76953-0.30859-1.332-0.92188-1.6875-0.61719-0.36328-1.5703-0.54688-2.8594-0.54688-1.0547 0-2.0312 0.10547-2.9375 0.3125-0.89844 0.21094-1.7305 0.52344-2.5 0.9375v-3.7344c1.0391-0.25 2.0859-0.44141 3.1406-0.57812 1.0625-0.13281 2.125-0.20312 3.1875-0.20312 2.7578 0 4.75 0.54688 5.9688 1.6406 1.2266 1.0859 1.8438 2.8555 1.8438 5.3125z"/>
  </symbol>
  <symbol id="c" overflow="visible">
   <path d="m7.7031-19.656v4.3438h5.0469v3.5h-5.0469v6.5c0 0.71094 0.14062 1.1875 0.42188 1.4375s0.83594 0.375 1.6719 0.375h2.5156v3.5h-4.1875c-1.9375 0-3.3125-0.39844-4.125-1.2031-0.80469-0.8125-1.2031-2.1797-1.2031-4.1094v-6.5h-2.4219v-3.5h2.4219v-4.3438z"/>
  </symbol>
  <symbol id="f" overflow="visible">
   <path d="m12.766-13.078v-8.2031h4.9219v21.281h-4.9219v-2.2188c-0.66797 0.90625-1.4062 1.5703-2.2188 1.9844s-1.7578 0.625-2.8281 0.625c-1.8867 0-3.4336-0.75-4.6406-2.25-1.2109-1.5-1.8125-3.4258-1.8125-5.7812 0-2.3633 0.60156-4.2969 1.8125-5.7969 1.207-1.5 2.7539-2.25 4.6406-2.25 1.0625 0 2 0.21484 2.8125 0.64062 0.82031 0.42969 1.5664 1.0859 2.2344 1.9688zm-3.2188 9.9219c1.0391 0 1.8359-0.37891 2.3906-1.1406 0.55078-0.76953 0.82812-1.8828 0.82812-3.3438 0-1.457-0.27734-2.5664-0.82812-3.3281-0.55469-0.76953-1.3516-1.1562-2.3906-1.1562-1.043 0-1.8398 0.38672-2.3906 1.1562-0.55469 0.76172-0.82812 1.8711-0.82812 3.3281 0 1.4609 0.27344 2.5742 0.82812 3.3438 0.55078 0.76172 1.3477 1.1406 2.3906 1.1406z"/>
  </symbol>
  <symbol id="k" overflow="visible">
   <path d="m10.5-3.1562c1.0508 0 1.8516-0.37891 2.4062-1.1406 0.55078-0.76953 0.82812-1.8828 0.82812-3.3438 0-1.457-0.27734-2.5664-0.82812-3.3281-0.55469-0.76953-1.3555-1.1562-2.4062-1.1562-1.0547 0-1.8594 0.38672-2.4219 1.1562-0.55469 0.77344-0.82812 1.8828-0.82812 3.3281 0 1.4492 0.27344 2.5586 0.82812 3.3281 0.5625 0.77344 1.3672 1.1562 2.4219 1.1562zm-3.25-9.9219c0.67578-0.88281 1.4219-1.5391 2.2344-1.9688 0.82031-0.42578 1.7656-0.64062 2.8281-0.64062 1.8945 0 3.4453 0.75 4.6562 2.25 1.207 1.5 1.8125 3.4336 1.8125 5.7969 0 2.3555-0.60547 4.2812-1.8125 5.7812-1.2109 1.5-2.7617 2.25-4.6562 2.25-1.0625 0-2.0078-0.21094-2.8281-0.625-0.8125-0.42578-1.5586-1.0859-2.2344-1.9844v2.2188h-4.8906v-21.281h4.8906z"/>
  </symbol>
  <symbol id="e" overflow="visible">
   <path d="m0.34375-15.312h4.8906l4.125 10.391 3.5-10.391h4.8906l-6.4375 16.766c-0.64844 1.6953-1.4023 2.8828-2.2656 3.5625-0.86719 0.6875-2 1.0312-3.4062 1.0312h-2.8438v-3.2188h1.5312c0.83203 0 1.4375-0.13672 1.8125-0.40625 0.38281-0.26172 0.67969-0.73047 0.89062-1.4062l0.14062-0.42188z"/>
  </symbol>
  <symbol id="j" overflow="visible">
   <path d="m2.5781-20.406h5.25v16.422h9.25v3.9844h-14.5z"/>
  </symbol>
  <symbol id="i" overflow="visible">
   <path d="m2.1875-5.9688v-9.3438h4.9219v1.5312c0 0.83594-0.007813 1.875-0.015625 3.125-0.011719 1.25-0.015625 2.0859-0.015625 2.5 0 1.2422 0.03125 2.1328 0.09375 2.6719 0.070313 0.54297 0.17969 0.93359 0.32812 1.1719 0.20703 0.32422 0.47266 0.57422 0.79688 0.75 0.32031 0.16797 0.69141 0.25 1.1094 0.25 1.0195 0 1.8203-0.39062 2.4062-1.1719 0.58203-0.78125 0.875-1.8672 0.875-3.2656v-7.5625h4.8906v15.312h-4.8906v-2.2188c-0.74219 0.89844-1.5234 1.5586-2.3438 1.9844-0.82422 0.41406-1.7344 0.625-2.7344 0.625-1.7617 0-3.1055-0.53906-4.0312-1.625-0.92969-1.082-1.3906-2.6602-1.3906-4.7344z"/>
  </symbol>
  <symbol id="h" overflow="visible">
   <path d="m14.719-14.828v3.9844c-0.65625-0.45703-1.3242-0.79688-2-1.0156-0.66797-0.21875-1.3594-0.32812-2.0781-0.32812-1.3672 0-2.4336 0.40234-3.2031 1.2031-0.76172 0.79297-1.1406 1.9062-1.1406 3.3438 0 1.4297 0.37891 2.543 1.1406 3.3438 0.76953 0.79297 1.8359 1.1875 3.2031 1.1875 0.75781 0 1.4844-0.10938 2.1719-0.32812 0.6875-0.22656 1.3203-0.56641 1.9062-1.0156v4c-0.76172 0.28125-1.5391 0.48828-2.3281 0.625-0.78125 0.14453-1.5742 0.21875-2.375 0.21875-2.7617 0-4.9219-0.70703-6.4844-2.125-1.5547-1.4141-2.3281-3.3828-2.3281-5.9062 0-2.5312 0.77344-4.5039 2.3281-5.9219 1.5625-1.4141 3.7227-2.125 6.4844-2.125 0.80078 0 1.5938 0.074219 2.375 0.21875 0.78125 0.13672 1.5547 0.35156 2.3281 0.64062z"/>
  </symbol>
  <symbol id="v" overflow="visible">
   <path d="m20.922-1.5156c-1.3125 0.63672-2.6797 1.1172-4.0938 1.4375-1.4062 0.3125-2.8672 0.46875-4.375 0.46875-3.3984 0-6.0898-0.94531-8.0781-2.8438-1.9922-1.9062-2.9844-4.4844-2.9844-7.7344 0-3.2891 1.0078-5.8789 3.0312-7.7656 2.0312-1.8828 4.8047-2.8281 8.3281-2.8281 1.3516 0 2.6484 0.13281 3.8906 0.39062 1.25 0.25 2.4258 0.625 3.5312 1.125v4.2188c-1.1484-0.64453-2.2812-1.125-3.4062-1.4375-1.125-0.32031-2.25-0.48438-3.375-0.48438-2.1055 0-3.7266 0.58984-4.8594 1.7656-1.125 1.168-1.6875 2.8398-1.6875 5.0156 0 2.1562 0.54688 3.8242 1.6406 5 1.0938 1.1797 2.6445 1.7656 4.6562 1.7656 0.53906 0 1.0469-0.03125 1.5156-0.09375 0.47656-0.070313 0.89844-0.17969 1.2656-0.32812v-3.9688h-3.2031v-3.5156h8.2031z"/>
  </symbol>
  <symbol id="u" overflow="visible">
   <path d="m2.3594-21.281h4.8906v21.281h-4.8906z"/>
  </symbol>
  <symbol id="t" overflow="visible">
   <path d="m2.3594-15.312h4.8906v15.312h-4.8906zm0-5.9688h4.8906v4h-4.8906z"/>
  </symbol>
  <symbol id="g" overflow="visible">
   <path d="m17.75-9.3281v9.3281h-4.9219v-7.1406c0-1.3203-0.03125-2.2344-0.09375-2.7344s-0.16797-0.86719-0.3125-1.1094c-0.1875-0.3125-0.44922-0.55469-0.78125-0.73438-0.32422-0.17578-0.69531-0.26562-1.1094-0.26562-1.0234 0-1.8242 0.39844-2.4062 1.1875-0.58594 0.78125-0.875 1.8711-0.875 3.2656v7.5312h-4.8906v-15.312h4.8906v2.2344c0.73828-0.88281 1.5195-1.5391 2.3438-1.9688 0.83203-0.42578 1.75-0.64062 2.75-0.64062 1.7695 0 3.1133 0.54688 4.0312 1.6406 0.91406 1.0859 1.375 2.6562 1.375 4.7188z"/>
  </symbol>
  <symbol id="s" overflow="visible">
   <path d="m12.766-2.5938c-0.66797 0.88672-1.4062 1.543-2.2188 1.9688-0.8125 0.41797-1.7578 0.625-2.8281 0.625-1.8672 0-3.4062-0.73438-4.625-2.2031-1.2188-1.4766-1.8281-3.3516-1.8281-5.625 0-2.2891 0.60938-4.1641 1.8281-5.625 1.2188-1.4688 2.7578-2.2031 4.625-2.2031 1.0703 0 2.0156 0.21484 2.8281 0.64062 0.8125 0.41797 1.5508 1.0742 2.2188 1.9688v-2.2656h4.9219v13.766c0 2.457-0.77734 4.3359-2.3281 5.6406-1.5547 1.3008-3.8086 1.9531-6.7656 1.9531-0.94922 0-1.8711-0.074219-2.7656-0.21875-0.89844-0.14844-1.7969-0.37109-2.7031-0.67188v-3.8125c0.86328 0.48828 1.7031 0.85156 2.5156 1.0938 0.82031 0.23828 1.6484 0.35938 2.4844 0.35938 1.6016 0 2.7734-0.35156 3.5156-1.0469 0.75-0.69922 1.125-1.7969 1.125-3.2969zm-3.2188-9.5312c-1.0117 0-1.8047 0.375-2.375 1.125-0.5625 0.74219-0.84375 1.7969-0.84375 3.1719 0 1.3984 0.26953 2.4609 0.8125 3.1875 0.55078 0.71875 1.3516 1.0781 2.4062 1.0781 1.0195 0 1.8125-0.36719 2.375-1.1094 0.5625-0.75 0.84375-1.8008 0.84375-3.1562 0-1.375-0.28125-2.4297-0.84375-3.1719-0.5625-0.75-1.3555-1.125-2.375-1.125z"/>
  </symbol>
  <symbol id="r" overflow="visible">
   <path d="m12.422-21.281v3.2188h-2.7031c-0.6875 0-1.1719 0.125-1.4531 0.375-0.27344 0.25-0.40625 0.6875-0.40625 1.3125v1.0625h4.1875v3.5h-4.1875v11.812h-4.8906v-11.812h-2.4375v-3.5h2.4375v-1.0625c0-1.6641 0.46094-2.8984 1.3906-3.7031 0.92578-0.80078 2.3672-1.2031 4.3281-1.2031z"/>
  </symbol>
  <symbol id="d" overflow="visible">
   <path d="m9.6406-12.188c-1.0859 0-1.9141 0.39062-2.4844 1.1719-0.57422 0.78125-0.85938 1.9062-0.85938 3.375s0.28516 2.5938 0.85938 3.375c0.57031 0.77344 1.3984 1.1562 2.4844 1.1562 1.0625 0 1.875-0.38281 2.4375-1.1562 0.57031-0.78125 0.85938-1.9062 0.85938-3.375s-0.28906-2.5938-0.85938-3.375c-0.5625-0.78125-1.375-1.1719-2.4375-1.1719zm0-3.5c2.6328 0 4.6914 0.71484 6.1719 2.1406 1.4766 1.418 2.2188 3.3867 2.2188 5.9062 0 2.5117-0.74219 4.4805-2.2188 5.9062-1.4805 1.418-3.5391 2.125-6.1719 2.125-2.6484 0-4.7148-0.70703-6.2031-2.125-1.4922-1.4258-2.2344-3.3945-2.2344-5.9062 0-2.5195 0.74219-4.4883 2.2344-5.9062 1.4883-1.4258 3.5547-2.1406 6.2031-2.1406z"/>
  </symbol>
  <symbol id="q" overflow="visible">
   <path d="m16.547-12.766c0.61328-0.94531 1.3477-1.6719 2.2031-2.1719 0.85156-0.5 1.7891-0.75 2.8125-0.75 1.7578 0 3.0977 0.54688 4.0156 1.6406 0.92578 1.0859 1.3906 2.6562 1.3906 4.7188v9.3281h-4.9219v-7.9844-0.35938c0.007813-0.13281 0.015625-0.32031 0.015625-0.5625 0-1.082-0.16406-1.8633-0.48438-2.3438-0.3125-0.48828-0.82422-0.73438-1.5312-0.73438-0.92969 0-1.6484 0.38672-2.1562 1.1562-0.51172 0.76172-0.77344 1.8672-0.78125 3.3125v7.5156h-4.9219v-7.9844c0-1.6953-0.14844-2.7852-0.4375-3.2656-0.29297-0.48828-0.8125-0.73438-1.5625-0.73438-0.9375 0-1.6641 0.38672-2.1719 1.1562-0.51172 0.76172-0.76562 1.8594-0.76562 3.2969v7.5312h-4.9219v-15.312h4.9219v2.2344c0.60156-0.86328 1.2891-1.5156 2.0625-1.9531 0.78125-0.4375 1.6406-0.65625 2.5781-0.65625 1.0625 0 2 0.25781 2.8125 0.76562 0.8125 0.51172 1.4258 1.2305 1.8438 2.1562z"/>
  </symbol>
  <symbol id="p" overflow="visible">
   <path d="m17.75-9.3281v9.3281h-4.9219v-7.1094c0-1.3438-0.03125-2.2656-0.09375-2.7656s-0.16797-0.86719-0.3125-1.1094c-0.1875-0.3125-0.44922-0.55469-0.78125-0.73438-0.32422-0.17578-0.69531-0.26562-1.1094-0.26562-1.0234 0-1.8242 0.39844-2.4062 1.1875-0.58594 0.78125-0.875 1.8711-0.875 3.2656v7.5312h-4.8906v-21.281h4.8906v8.2031c0.73828-0.88281 1.5195-1.5391 2.3438-1.9688 0.83203-0.42578 1.75-0.64062 2.75-0.64062 1.7695 0 3.1133 0.54688 4.0312 1.6406 0.91406 1.0859 1.375 2.6562 1.375 4.7188z"/>
  </symbol>
  <symbol id="o" overflow="visible">
   <path d="m2.5781-20.406h5.875l7.4219 14v-14h4.9844v20.406h-5.875l-7.4219-14v14h-4.9844z"/>
  </symbol>
  <symbol id="n" overflow="visible">
   <path d="m2.5781-20.406h8.7344c2.5938 0 4.582 0.57812 5.9688 1.7344 1.3945 1.1484 2.0938 2.7891 2.0938 4.9219 0 2.1367-0.69922 3.7812-2.0938 4.9375-1.3867 1.1562-3.375 1.7344-5.9688 1.7344h-3.4844v7.0781h-5.25zm5.25 3.8125v5.7031h2.9219c1.0195 0 1.8047-0.25 2.3594-0.75 0.5625-0.5 0.84375-1.2031 0.84375-2.1094 0-0.91406-0.28125-1.6172-0.84375-2.1094-0.55469-0.48828-1.3398-0.73438-2.3594-0.73438z"/>
  </symbol>
  <symbol id="m" overflow="visible">
   <path d="m2.3594-15.312h4.8906v15.031c0 2.0508-0.49609 3.6172-1.4844 4.7031-0.98047 1.082-2.4062 1.625-4.2812 1.625h-2.4219v-3.2188h0.85938c0.92578 0 1.5625-0.21094 1.9062-0.625 0.35156-0.41797 0.53125-1.2461 0.53125-2.4844zm0-5.9688h4.8906v4h-4.8906z"/>
  </symbol>
 </defs>
 <g>
  <path d="m142.8 486.3c-5.2266 0-10.266-1.9492-14.133-5.4648-3.8633-3.5195-6.2812-8.3477-6.7734-13.551-0.49609-5.2031 0.96875-10.402 4.1055-14.586l181.38-247.3c6.6836-10.363 17.723-17.125 29.992-18.367 12.27-1.2422 24.441 3.168 33.066 11.984l49 50.398v0.003906c8.5898 8.8125 12.703 21.059 11.176 33.273-1.5234 12.211-8.5234 23.07-19.016 29.5l-256.98 170.58c-3.5078 2.3047-7.6172 3.5312-11.816 3.5273zm198.69-282.58c-0.83984-0.054687-1.6797-0.054687-2.5195 0-7.1797 0.71484-13.617 4.7305-17.418 10.867l-0.33594 0.50391-181.44 247.86c-1.25 1.543-1.1016 3.7812 0.33594 5.1523 1.2891 1.5312 3.5586 1.7773 5.1523 0.55859l257.09-170.69c6.1836-3.7812 10.305-10.172 11.199-17.359 0.91797-7.1328-1.4727-14.289-6.4961-19.434l-49-50.398c-4.3633-4.4648-10.332-7.0039-16.574-7.0586z"/>
  <path d="m385.39 212.8c5.9375-21.672 12.77-43.176 20.383-64.344 3.6406-10.359 7.5078-21.168 11.426-30.855 0-0.50391 2.2969-4.5938 2.6328-4.2578 0.33594 0.33594-0.67188 0.50391-0.83984 0.44922-0.16797-0.054688 0 0.50391-1.5664-0.83984-1.5664-1.3438-0.78516-1.0078-1.0078-0.61719h-0.003907c-0.10547 1.8633-0.10547 3.7344 0 5.6016 0 2.8555 0 5.6016-0.39062 8.5117-0.86719 12.23-3.2539 24.309-7.1133 35.949-3.1367 9.2383 10.586 14.504 15.398 6.4961h0.003906c18.359-30.316 40.281-58.328 65.297-83.438 5.6602-6.5156 12.07-12.344 19.094-17.359 1.2656-0.9375 2.7188-1.5859 4.2578-1.9062h1.7344c2.2969 0.89453 2.8008 2.2969 3.4141 4.9844 0.39062 1.5664 0-1.8477 0 0.95312h0.003906c0.082031 0.91016 0.082031 1.832 0 2.7422v0.72656c-0.33594 1.1211-0.61719 2.2383-1.0625 3.3594l-0.003906 0.003907c-1.6367 3.3281-3.668 6.4492-6.0469 9.2969-6.2734 7.8945-12.656 15.625-18.984 23.406l-42.504 52.414c-3.1914 3.3359-3.1914 8.5938 0 11.93 3.3008 3.2812 8.6289 3.2812 11.93 0 9.625-10.629 20.219-20.34 31.637-29.008 5.4336-3.9844 11.293-7.3477 17.473-10.023 3.1055-1.2969 6.3086-2.3438 9.5781-3.1367 2.2773-0.625 4.6523-0.81641 7-0.55859 0.28125 0 2.0703 0.33594 0.89453 0 0.50391 0 0.83984 0.95312 0.39062 0.28125-0.44922-0.67188 0.39063 0.95312 0.33594 0.55859-0.054688-0.39062 0 0.61719 0 0.72656h0.003906c-0.83984 2.4531-2.0273 4.7734-3.5312 6.8867-4.207 5.5-8.9727 10.547-14.223 15.066-10.277 8.5156-21.027 16.441-32.199 23.742-13.375 8.625-25.688 18.793-36.68 30.297-2.0859 2.1367-2.8984 5.2109-2.1445 8.1016 0.75781 2.8867 2.9727 5.168 5.8398 6.0117 7.332 0.72656 14.707 0.89453 22.062 0.50391 2.2305-0.0625 4.4453 0.35938 6.4961 1.2305 0.61328 0.25391 1.1953 0.57422 1.7383 0.95312 0 0 0.72656 0.78516 0.89453 0.89453 1.0078 0.72656-1.8477 0-0.39062-3.3047l2.1836-3.6953c-3.7773 3.8359-8.582 6.4961-13.832 7.6719-5.9805 1.6406-12.168 2.3945-18.367 2.2422-15.848 0-31.414-3.6953-47.266-3.0234-4.2656 0.49219-7.4844 4.1055-7.4844 8.3984s3.2188 7.9062 7.4844 8.3984c26.207-1.0625 52.527 8.2891 77.727-2.6875 5.1641-2.0391 9.8281-5.1719 13.664-9.1836 5.9922-6.9453 1.0625-15.289-5.2656-19.77l0.003906 0.003907c-4.8125-3.1367-10.391-4.8984-16.129-5.0977-6.3242 0.33594-12.66 0.33594-18.984 0l3.6953 14.113c20.945-23.297 50.398-36.23 72.801-57.793 10.863-10.414 29.289-32.199 11.199-44.801-13.273-9.4062-33.602 0.44922-45.922 7.6172h0.003906c-15.77 10.219-30.082 22.52-42.562 36.566l11.93 11.93 42.449-52.305c6.832-8.457 13.777-16.801 20.441-25.312 6.6641-8.5117 11.703-16.801 10.809-27.105h-0.003906c-0.17188-4.8828-1.8906-9.5898-4.9102-13.434s-7.1836-6.6328-11.891-7.957c-11.199-2.4648-20.664 4.7031-28 11.816-14.469 13.402-28.031 27.754-40.598 42.953-14.598 17.676-27.887 36.391-39.762 56l15.457 6.4961c4.2031-12.703 6.8711-25.863 7.9531-39.203 0.98047-6.4023 0.98047-12.914 0-19.316-0.73828-3.3086-2.6211-6.2461-5.3164-8.2969s-6.0312-3.0781-9.4141-2.9062c-3.2852 0.33594-6.4219 1.5508-9.0742 3.5234-2.6523 1.9727-4.7227 4.625-5.9883 7.6797-2.8555 5.9922-5.0977 12.375-7.4492 18.535-5.0781 12.207-9.7227 24.641-13.941 37.297-4.7422 14.41-9.1289 28.914-13.16 43.512-1.0469 4.4258 1.6016 8.8867 5.9883 10.094 4.3867 1.2031 8.9414-1.2773 10.305-5.6172z"/>
  <path d="m282.13 252c4.9844 20.664 21.168 35.617 36.902 48.664 1.5703 1.6445 3.7344 2.5859 6.0078 2.6133 2.2734 0.03125 4.4609-0.85547 6.0742-2.4609 1.6094-1.6016 2.5078-3.7891 2.4883-6.0586-0.015624-2.2734-0.94922-4.4453-2.5859-6.0234-7.4766-5.918-14.465-12.438-20.887-19.488-0.72656-0.89453-1.5117-1.793-2.2383-2.7422-0.72656-0.95312-0.44922-0.55859 0 0l-1.2305-1.6797c-1.2891-1.793-2.4648-3.6406-3.5859-5.6016l-1.625-3.0781-0.72656-1.5664c-0.95312-1.9609 0.33594 1.0078 0 0l-0.003906-0.003906c-0.87109-2.2656-1.5977-4.5859-2.1836-6.9414-1.2773-4.4844-5.9062-7.1211-10.414-5.9375-4.3086 1.4688-6.7539 6.0117-5.6016 10.418z"/>
  <path d="m219.63 407.46c0.61719 1.3594 1.3672 2.6523 2.2383 3.8633 1.2305 1.7109 2.6172 3.3047 4.1445 4.7578 3.2266 2.9062 7.0469 5.0664 11.199 6.3281 3.3008 0.88281 6.8047-0.30469 8.8867-3.0117 2.082-2.707 2.332-6.3984 0.63281-9.3633-1.1445-1.8789-2.9375-3.2695-5.0391-3.918l-1.7344-0.61719 2.0156 0.83984c-1.6211-0.67969-3.1445-1.5625-4.5352-2.6328l1.7344 1.3438c-1.3945-1.0586-2.6367-2.3008-3.6953-3.6953l1.3438 1.7344v0.003906c-1.0117-1.2812-1.8398-2.6953-2.4648-4.2031-0.54297-0.93359-1.2891-1.7383-2.1836-2.3516-1.7461-1.4453-4.0352-2.0586-6.2734-1.6797-1.1133 0.0625-2.1914 0.41016-3.1328 1.0078-1.8789 1.1328-3.2617 2.9336-3.8672 5.0391l-0.28125 2.2383 0.003906 0.003906c-0.027344 1.5117 0.35938 3.0039 1.1172 4.3125z"/>
  <path d="m306.6 224.39c5.293 16.457 14.406 31.426 26.598 43.68 12.008 10.816 25.152 20.297 39.199 28.281 9.2969 5.6016 17.809-8.8477 8.5117-14.559-12.48-7.0938-24.211-15.445-35-24.922-10.539-10.27-18.422-22.957-22.957-36.961-1.3516-4.418-5.9336-7.0039-10.418-5.8789-4.3594 1.375-6.8398 5.9609-5.5977 10.359z"/>
  <path d="m187.88 377.55c-29.07-12.293-50.66-37.547-58.289-68.172s-0.40234-63.059 19.504-87.551 50.176-38.191 81.715-36.98c31.539 1.207 60.672 17.184 78.648 43.129l-13.887 9.6328h-0.003906c-14.949-21.555-39.164-34.824-65.379-35.824-26.211-1-51.367 10.387-67.918 30.738-16.551 20.352-22.566 47.301-16.238 72.762 6.3242 25.457 24.25 46.457 48.402 56.699z"/>
  <path d="m356.83 83.16-11.199 70.449c-1.0898 4.4805 1.5195 9.0312 5.9336 10.359 4.4844 1.2188 9.1094-1.4062 10.363-5.8789l11.199-70.449c1.0977-4.4805-1.4805-9.043-5.8828-10.418-4.5078-1.1836-9.1367 1.4531-10.414 5.9375z"/>
  <path d="m285.43 74.258 24.863 87.191c1.2344 4.4844 5.875 7.1172 10.359 5.8789s7.1172-5.875 5.8789-10.359l-24.809-87.191c-1.3633-4.3398-5.918-6.8203-10.305-5.6172-4.3867 1.207-7.0352 5.668-5.9883 10.098z"/>
  <path d="m246.9 138.82 35.898 39.703c3.2969 3.2812 8.6289 3.2812 11.926 0 3.1641-3.3438 3.1641-8.582 0-11.926l-35.895-39.703v-0.003907c-3.2969-3.2812-8.6289-3.2812-11.93 0-3.2188 3.3242-3.2188 8.6055 0 11.93z"/>
  <path d="m264.77 280.79c-1.6836-5.1328-1.6836-10.664 0-15.793 2.1172-6.8477 3.3047-13.949 3.5273-21.113-0.37891-6.832-2.293-13.496-5.6016-19.488-1.6328-3.0547-4.0469-5.6211-7-7.4297-2.9531-1.8125-6.3359-2.8047-9.8008-2.8711-6.418-0.66016-12.824 1.3672-17.695 5.5977-4.4102 4.8281-6.8984 11.102-7 17.641-0.39062 5.0391 0.67188 11.648-2.1836 15.398-0.53125 0.48047-1.2852 0.62891-1.9609 0.39453-1.918-0.57422-3.6914-1.5508-5.207-2.8555-4.2031-4.1914-8.8164-7.9414-13.777-11.203-5.5781-2.9609-12.105-3.5859-18.141-1.7344-6.1758 2.0508-11.297 6.4492-14.262 12.242-2.9648 5.793-3.5352 12.516-1.5898 18.727 4.4258 13.609 17.305 18.48 28.84 24.586l0.003906-0.003906c1.707 0.77344 3.25 1.8789 4.5352 3.25 0 0 0.33594 1.1758 0 0.33594-0.33594-0.83984 0.28125-0.39062 0 0-2.8555 3.1914-9.7422 3.1367-14.113 4.3672-7.2539 1.582-13.254 6.6602-16.016 13.551-1.0039 3.5625-1.0156 7.3281-0.027344 10.891 0.98828 3.5664 2.9336 6.793 5.6289 9.3281 10.922 10.922 30.465 11.199 44.801 8.7344h-0.003907c4.4531-1.2773 7.0664-5.8828 5.8828-10.359-1.3047-4.4375-5.875-7.0547-10.363-5.9375-5.2461 0.86719-10.598 0.86719-15.848 0-4.4805-0.26172-8.7852-1.8398-12.375-4.5352-0.75781-0.66016-1.2383-1.5781-1.3438-2.5742 0-0.50391 0.28125-0.95313 1.2891-1.5664v-0.003906c4.4219-1.7891 9.0508-3.0312 13.773-3.6953 11.535-3.5273 21.113-15.902 13.441-27.609-6.2734-9.5742-18.09-11.199-26.602-17.586l0.003907 0.003906c-3.0664-1.9688-5.1133-5.1836-5.6016-8.793-0.25-3.0938 1.4805-6.0117 4.3125-7.2812 1.1914-0.53516 2.5117-0.72656 3.8086-0.55859-0.89453 0 1.7344 0.55859 1.625 0.50391h-0.003907c0.94141 0.45703 1.8242 1.0234 2.6328 1.6797 3.8633 2.8555 7.1133 6.7188 11.199 9.6328 9.9102 7.2227 23.52 6.9453 30.52-4.0898 2.8438-5.1289 4.2383-10.938 4.0352-16.797 0-4.0312 0-9.9102 1.8477-12.039v-0.003907c1.1328-0.91797 2.5781-1.3594 4.0312-1.2305 0.50391-0.054688 1.0078-0.054688 1.5117 0h0.83984c0.50391 0 1.1211 0.55859 0.61719 0 1.582 2.0508 2.7109 4.418 3.3047 6.9453 0.97656 2.8789 1.3398 5.9297 1.0625 8.957-0.89844 6.293-2.1914 12.52-3.8633 18.648-1.5234 6.668-1.1719 13.625 1.0078 20.105 1.3047 4.4688 5.8867 7.1289 10.414 6.0469 4.4609-1.3008 7.0703-5.9219 5.8828-10.414z"/>
  <path d="m406.5 404.71c-10.191 0.89453-21.617-2.7422-24.414-13.441v0.003907c-0.90234-4.8125 0.46094-9.7695 3.6953-13.441 3.8633-5.0117 8.1953-9.6406 12.934-13.832 9.1523-8.9531 20.059-15.914 32.035-20.441 10.586-3.5273 23.184-3.4141 30.801 5.6016 3.0234 3.6953 7.1133 10.809 4.9297 15.793h-0.003906c-1.2812 2.4531-2.9062 4.7148-4.8164 6.7188-2.6875 3.1914-5.6016 6.3281-8.3984 9.3516-7.5586 7.7852 4.3672 19.77 11.93 11.93h-0.003906c6.4961-5.9297 12.016-12.848 16.352-20.496 3.5352-9.0781 2.5156-19.297-2.7422-27.496-4.1914-7.3945-10.574-13.305-18.27-16.914-7.6914-3.6133-16.316-4.7461-24.684-3.2461-17.414 2.4648-33.602 13.215-46.367 24.586-11.703 10.246-26.434 24.641-24.473 41.551 2.3516 20.441 22.008 32.367 41.496 30.688 4.6211-0.11719 8.3398-3.8359 8.457-8.457-0.03125-4.6562-3.8008-8.4258-8.457-8.457z"/>
  <path d="m406 416.14c9.4453 16.465 19.562 32.535 30.352 48.215 1.3633 2.2109 3.6484 3.6914 6.2227 4.0273 2.5742 0.33594 5.1641-0.50391 7.0508-2.2891 6.3086-5.1133 12.582-10.285 18.816-15.512l9.0156-7.6719c3.3047-2.8555 7.5039-5.6016 8.7344-10.023 1.2344-4.4258-1.793-9.1875-4.4805-12.883l-6.5508-10.473-13.832-22.062c-5.6016-9.1836-20.383-0.67188-14.559 8.5664l11.984 19.152c3.9766 6.2734 8.3438 12.434 11.816 18.93l-1.1758-4.2578v1.0078l1.1211-4.2578c0.39062-0.72656-0.55859 0.50391-0.72656 0.67188l-2.0156 1.7344-4.4805 3.8633c-2.8008 2.4648-5.6016 4.8711-8.5117 7.2812-5.6016 4.8164-11.199 9.5195-17.305 14.223l13.273 1.6797c-10.754-15.68-20.887-31.754-30.406-48.215l-0.007812 0.003906c-2.668-2.9883-7.0703-3.6953-10.539-1.6875-3.4727 2.0039-5.0547 6.1719-3.7969 9.9766z"/>
  <path d="m378 354.98c-24.586-5.9375-51.688-2.7422-70.895 14.84-8.2773 7.4414-14.129 17.195-16.801 28-1.6484 6.4648-1.418 13.266 0.66406 19.605 2.0859 6.3398 5.9336 11.953 11.094 16.18 10.914 9.0273 25.324 12.629 39.203 9.7969 4.3359-1.3633 6.8203-5.918 5.6133-10.305-1.207-4.3867-5.668-7.0352-10.094-5.9883-4.9727 0.91016-10.094 0.49609-14.855-1.207-4.7578-1.6992-8.9844-4.625-12.25-8.4805-6.9453-8.625-2.7422-20.105 2.6328-28 12.992-19.434 39.199-23.352 61.152-18.09 10.586 2.5742 15.062-13.719 4.4805-16.297z"/>
  <path d="m330.4 435.79c-1.2305 20.496-1.793 41.031-1.6797 61.602v-0.003906c0.0625 4.6445 3.8125 8.3984 8.457 8.457h34.215c4.6445-0.058594 8.3984-3.8125 8.457-8.457v-32.48c0-5.2656 0-10.586 0.33594-15.848l0.33594-8.2891v-5.543c0.28125-2.4062 0-1.8477-1.0078 1.7344l-3.7539 2.1289c2.6875-1.0078 5.6016-1.3438 8.3438-2.2969l0.003907 0.003906c2.9844-1 5.8867-2.2383 8.6797-3.6953 5.4297-2.9414 10.363-6.7227 14.613-11.203 7.5586-7.8398-4.3672-19.77-11.93-11.984l0.003906 0.003906c-4.7617 5.1484-10.758 9-17.418 11.199-4.3672 1.2891-8.9023 1.5664-11.93 5.6016l0.003906-0.003906c-2.3281 4.4023-3.3203 9.3828-2.8555 14.336-0.95313 18.871-0.67188 37.742-0.39063 56.617l8.3984-8.457h-34.215l8.457 8.457c0-20.496 0.55859-41.031 1.6797-61.602h-0.003906c0.27734-2.3945-0.48047-4.793-2.0859-6.5938-1.6055-1.8008-3.9023-2.832-6.3125-2.832-2.4141 0-4.7109 1.0312-6.3125 2.832-1.6055 1.8008-2.3672 4.1992-2.0898 6.5938z"/>
  <path d="m421.12 407.68c-1.1289-1.5742-2.1211-3.2422-2.9688-4.9844 0 0-1.0078-2.4062-0.50391-1.0078 0-0.78516-0.55859-1.5664-0.78516-2.3516-0.22266-0.78516-0.61719-2.1289-0.83984-3.1914-0.22266-1.0625-0.39063-2.6875 0-1.0625v-5.6016 0l0.33594-1.625v-0.78516c-0.33594 0.72656 0 0.67188 0 0v-0.33594c-0.33594 0.44922 0 0.39062 0.33594 0-2.0703 1.0078 1.793-0.78516 0.44922 0s-0.39062 0 0.39062 0h0.72656c0.89453 0.33594 0.95312 0.33594 0 0l0.67188 0.39062c0.78516 0.50391 0.83984 0.50391 0 0 0.61719 0.67188 0.67188 0.67188 0 0l0.003906 0.003906c1.9336 3.2734 5.8164 4.8516 9.4883 3.8594 3.668-0.99219 6.2266-4.3125 6.2461-8.1172v-1.457-1.3984c0.25391-1.3789 0.64844-2.7305 1.1758-4.0312-0.44922 1.0625 0 0 0.44922-0.67188s0.67188-1.1211 1.0625-1.6797c-1.1758 1.5664 2.2383-1.9609 0.72656-0.72656l1.2305-0.83984s1.9609-0.89453 1.0078-0.55859c-0.95312 0.33594 0.95312 0 1.1211 0h0.28125c0.89453 0 1.1758 0 0 0l1.625 0.44922c0.95313 0-1.3984-0.89453 0 0 1.3984 0.89453-0.44922-0.67188 0 0v-0.003906c0.17578 0.11719 0.32813 0.26953 0.44922 0.44531 0.39062 0.44922 0.33594 0.33594 0-0.39063 0 0.83984 0.33594 0.44922 0 0 0 0.55859 0 1.1211 0.50391 1.625 0.50391 0.50391 0-1.457 0 0v3.4727 0 1.793-0.003907c-1.5117 5.9492-0.85547 12.242 1.8477 17.754 2.3594 4.0078 7.5117 5.3594 11.535 3.0234 3.957-2.3984 5.2969-7.5039 3.0234-11.535-0.89453-1.5664 0 1.1758 0-0.44922v-0.67188-2.0156-1.3438-1.6797l0.33594-2.1289c0.32031-1.8516 0.50781-3.7227 0.5625-5.6016 0.082031-4.0352-1.1055-8-3.3984-11.324-2.2891-3.3281-5.5664-5.8477-9.3711-7.2109-3.7656-1.2578-7.8008-1.4609-11.672-0.58203-3.8711 0.87891-7.4297 2.8047-10.281 5.5664-5.918 5.9531-9.2422 14.008-9.2383 22.402l16.352-4.9297c-3.7812-5.5234-10.109-8.75-16.801-8.5664-3.6133 0.16016-7.1055 1.3398-10.078 3.4023-2.9727 2.0586-5.3008 4.918-6.7227 8.2422-4.7031 11.199-0.72656 25.48 5.9375 34.945 2.418 3.9336 7.5 5.2656 11.535 3.0234 3.9844-2.3789 5.3281-7.5078 3.0234-11.535z"/>
  <path d="m346.36 431.48-4.5352-10.754c0.72656 1.6797-0.50391-1.1758-0.61719-1.5117l-0.83984-2.1289v0.003906c-0.60156-1.6445-1.0898-3.3281-1.457-5.043 0-0.61719-0.33594-2.2383 0-0.72656v-3.0234 0.39062c-0.023437-0.37109-0.023437-0.74609 0-1.1211-0.39062 0.83984-0.39062 0.89453 0 0-0.78516 0.89453-0.83984 1.0078 0 0.33594s-1.5117 0.61719 0 0l1.0625-0.61719c-1.0078 0.44922-1.2305 0.55859-0.61719 0.33594h0.44922 1.2305-0.61719c0.61719 0 2.7422 0.95312 0.83984 0l0.007813 0.003906c0.625 0.26172 1.2227 0.58203 1.7891 0.94922l1.1211 0.72656c-0.78516-0.61719-0.83984-0.61719 0 0 0.83984 0.61719 0.95312 0.89453 1.3984 1.3984v0.003906c2.3984 3.1445 5.5898 5.5977 9.2422 7.1133 4.6719 1.3438 9.6875 0.77734 13.945-1.5703 3.1367-1.5664 5.6016-4.0898 8.625-5.6016l-0.003907 0.003907c3.6484-2.5117 4.7383-7.4102 2.5039-11.23-2.2344-3.8242-7.0391-5.2734-11.016-3.3281-1.6992 1.0703-3.3438 2.2305-4.9258 3.4688-0.78516 0.61719-1.625 1.1758-2.4648 1.7344l-1.2891 0.67188c0.95312-0.39062 0.95312-0.44922 0 0-0.95312 0.44922-0.89453 0 0 0h-0.50391c1.0078 0.50391 1.0625 0.50391 0 0 1.7344 1.5117-0.33594-0.33594-0.61719-0.67188-0.28125-0.33594-1.1211-1.2305-1.6797-1.9023-2.7461-3.4258-6.4414-5.9688-10.621-7.3125-4.1836-1.3477-8.668-1.4297-12.898-0.24609-4.3867 1.4141-8.043 4.4883-10.191 8.5664-2.082 4.8633-2.5156 10.273-1.2305 15.402 0.84766 3.6953 2.0664 7.2969 3.6406 10.75l5.6016 13.441h-0.003906c1.125 1.9375 2.9727 3.3477 5.1406 3.9141 2.1641 0.56641 4.4688 0.24609 6.3945-0.89062 3.9102-2.4336 5.2383-7.4961 3.0234-11.535z"/>
  <use x="70" y="644" xlink:href="#w"/>
  <use x="90.550781" y="644" xlink:href="#b"/>
  <use x="104.359375" y="644" xlink:href="#a"/>
  <use x="123.347656" y="644" xlink:href="#l"/>
  <use x="142.242188" y="644" xlink:href="#c"/>
  <use x="155.628906" y="644" xlink:href="#a"/>
  <use x="174.617188" y="644" xlink:href="#f"/>
  <use x="204.410156" y="644" xlink:href="#k"/>
  <use x="224.453125" y="644" xlink:href="#e"/>
  <use x="252.453125" y="644" xlink:href="#j"/>
  <use x="270.292969" y="644" xlink:href="#i"/>
  <use x="290.226562" y="644" xlink:href="#h"/>
  <use x="306.824219" y="644" xlink:href="#e"/>
  <use x="334.824219" y="644" xlink:href="#f"/>
  <use x="354.867188" y="644" xlink:href="#a"/>
  <use x="383.605469" y="644" xlink:href="#v"/>
  <use x="406.585938" y="644" xlink:href="#b"/>
  <use x="420.398438" y="644" xlink:href="#a"/>
  <use x="439.386719" y="644" xlink:href="#u"/>
  <use x="448.984375" y="644" xlink:href="#t"/>
  <use x="458.582031" y="644" xlink:href="#g"/>
  <use x="478.515625" y="644" xlink:href="#s"/>
  <use x="70" y="672" xlink:href="#r"/>
  <use x="82.183594" y="672" xlink:href="#b"/>
  <use x="95.992188" y="672" xlink:href="#d"/>
  <use x="115.226562" y="672" xlink:href="#q"/>
  <use x="154.152344" y="672" xlink:href="#c"/>
  <use x="167.535156" y="672" xlink:href="#p"/>
  <use x="187.46875" y="672" xlink:href="#a"/>
  <use x="216.207031" y="672" xlink:href="#o"/>
  <use x="239.640625" y="672" xlink:href="#d"/>
  <use x="258.878906" y="672" xlink:href="#i"/>
  <use x="278.8125" y="672" xlink:href="#g"/>
  <use x="308.492188" y="672" xlink:href="#n"/>
  <use x="329.015625" y="672" xlink:href="#b"/>
  <use x="342.820312" y="672" xlink:href="#d"/>
  <use x="362.058594" y="672" xlink:href="#m"/>
  <use x="371.65625" y="672" xlink:href="#a"/>
  <use x="390.648438" y="672" xlink:href="#h"/>
  <use x="407.242188" y="672" xlink:href="#c"/>
 </g>
</svg>
